<svg xmlns="http://www.w3.org/2000/svg" viewBox="0 0 520 471" role="img" aria-label="Mapa de Europa: envíos desde Alicante">
<path d="M103,185 102,186 99,187 98,188 96,190 92,190 90,187 88,186 85,187 85,185 86,185 83,184 82,183 80,183 78,184 76,185 73,184 72,182 71,180 72,179 73,178 76,177 80,175 82,174 84,172 85,171 85,170 86,168 87,167 86,166 86,164 85,161 85,159 84,159 82,160 81,160 79,161 78,161 80,158 82,157 83,155 85,153 89,151 91,151 92,151 94,151 98,152 97,149 98,149 100,151 102,151 101,151 99,150 98,147 98,145 99,144 100,142 99,142 99,140 100,138 101,136 101,134 99,133 98,134 95,132 94,130 92,127 92,125 93,120 96,117 99,116 94,116 92,117 91,118 89,118 88,120 86,120 84,119 82,120 80,121 79,120 77,119 76,120 75,122 74,121 73,118 72,117 73,115 75,112 77,108 78,106 78,105 78,102 76,100 76,98 76,96 76,95 79,95 78,94 76,92 77,90 76,91 75,93 73,94 73,95 72,96 71,94 72,92 72,91 74,88 73,89 71,92 70,93 69,95 70,97 67,107 67,108 65,108 65,106 66,102 67,100 68,98 67,98 67,92 67,91 68,88 68,86 69,84 69,82 70,81 70,80 71,78 72,77 67,81 66,82 65,82 64,81 63,80 62,78 60,78 61,76 63,76 65,74 64,73 65,72 67,69 67,66 66,64 64,62 64,61 65,60 67,59 66,58 65,56 66,53 67,51 70,51 72,51 69,47 70,45 70,43 71,42 74,42 73,40 73,38 73,37 74,35 75,34 77,35 78,36 80,35 81,36 84,35 88,35 91,34 93,34 96,33 98,33 98,36 98,38 97,39 96,41 94,42 89,47 87,49 86,52 88,52 86,56 85,58 87,58 88,57 91,56 94,55 98,56 100,55 108,56 110,55 112,56 113,57 114,60 113,62 112,63 111,65 111,68 108,74 106,77 105,79 104,81 103,82 102,83 98,84 96,85 95,85 98,85 100,85 103,86 103,88 102,89 99,89 97,92 96,93 93,93 90,92 89,91 90,93 92,93 98,95 101,93 104,93 110,96 111,98 114,101 115,102 116,103 116,105 117,110 119,115 120,120 121,122 122,123 127,125 128,126 130,128 132,131 133,133 135,134 134,135 134,136 134,138 135,140 136,142 138,145 137,144 134,143 133,142 130,143 128,143 130,143 133,143 138,148 140,151 141,154 140,156 139,157 138,158 137,160 140,162 141,161 143,159 145,158 146,158 148,159 152,159 153,160 157,163 157,164 158,166 158,168 157,170 157,172 156,175 156,176 154,178 152,179 152,180 151,182 148,182 145,183 147,184 147,186 146,187 144,188 141,189 143,188 144,190 147,191 152,190 154,191 154,194 149,197 148,198 146,199 145,200 143,201 141,201 140,202 134,201 131,202 126,202 124,201 122,201 120,201 119,200 120,201 117,203 115,203 113,203 111,203 112,205 107,205 106,206 105,205 103,204 102,204 100,203 94,205 93,207 93,209 92,211 91,213 89,213 88,212 85,211 85,210 83,210 80,211 78,212 77,212 74,214 73,217 71,217 70,216 69,215 67,216 66,215 67,213 70,213 73,210 74,209 75,207 76,206 79,202 80,200 80,198 83,197 84,194 89,193 92,193 94,194 97,194 99,193 101,190 102,188 103,187 104,186 106,183 105,184 103,185Z M84,151 86,151 84,153 83,154 82,155 81,154 80,152 80,150 81,149 83,149 84,151Z M123,-13 122,-15 123,-18 124,-17 123,-16 123,-13Z M120,-13 120,-12 122,-10 123,-11 123,-10 122,-5 122,-3 121,-0 120,3 120,-1 120,-3 120,-5 118,-4 117,-6 116,-6 117,-7 119,-8 118,-12 117,-12 118,-13 119,-15 120,-15 120,-13Z M97,29 96,30 94,28 94,27 96,27 96,28 97,29Z M98,24 100,25 102,25 101,27 99,26 97,26 96,25 95,25 95,23 95,21 97,21 98,22 98,24Z M102,20 101,20 101,18 99,18 98,17 101,17 101,19 103,19Z M73,106 71,106 69,102 70,100 71,100 72,101 73,103 73,105Z M65,86 60,87 58,87 60,86 60,83 58,81 60,79 62,80 63,82 64,82 65,83 65,86Z M60,95 61,98 61,100 61,101 59,102 59,101 58,100 56,100 56,99 56,97 57,96 59,96 60,95Z M62,98 61,97 61,95 63,94 63,93 64,91 64,93 62,98Z M59,40 58,44 57,45 55,46 57,46 55,49 53,50 52,52 51,53 48,52 50,51 51,50 49,49 50,47 49,46 48,45 49,43 51,44 53,44 52,41 55,39 58,37 60,38 59,40Z M60,60 60,62 60,64 63,65 66,65 66,67 64,68 63,70 61,67 60,67 58,67 56,64 54,63 53,62 53,60 55,60 54,58 57,57 57,56 59,56 60,58 60,60Z M47,55 48,57 47,59 46,59 43,57 44,56 46,56 47,55Z M46,69 45,68 44,67 44,64 44,62 46,63 46,68Z M59,135 57,135 55,136 54,135 54,133 52,133 51,131 50,129 49,128 48,129 47,130 48,132 46,133 44,134 43,134 41,133 39,132 39,131 36,128 37,126 40,125 39,123 38,122 40,121 42,121 43,119 44,118 45,115 47,113 48,114 49,114 50,111 53,111 56,110 59,111 61,112 62,115 64,117 65,119 65,121 63,122 65,122 67,123 68,124 68,125 68,127 67,126 66,125 66,127 66,129 67,131 66,132 64,132 63,133 63,135 62,136 59,135Z M123,204 122,205 121,206 117,204 119,203 120,202 122,203 123,204Z M609,272 605,272 601,272 599,275 595,276 593,276 592,279 590,278 589,278 587,278 585,280 582,279 580,280 574,285 573,288 571,289 570,289 572,287 573,286 572,283 570,287 568,288 568,290 568,292 568,294 570,296 567,295 567,293 566,292 564,292 562,290 560,290 557,289 555,288 553,287 552,290 550,290 548,289 547,288 544,289 542,289 538,290 536,289 533,287 531,286 530,286 531,285 533,284 531,283 529,283 528,282 527,281 529,281 531,282 534,282 537,283 539,281 537,281 534,281 533,280 532,279 532,277 532,274 531,272 529,269 530,272 531,273 531,275 531,278 531,280 528,280 527,279 527,277 525,280 522,280 517,281 517,283 517,285 516,286 514,289 510,294 508,295 506,296 504,296 503,297 504,299 504,303 504,304 503,303 502,302 500,302 498,302 496,303 494,304 493,304 488,304 487,303 485,301 487,300 489,300 489,299 489,297 490,296 491,295 492,294 492,292 493,292 495,290 495,289 495,286 494,284 496,282 497,282 498,285 499,283 500,284 502,284 504,283 506,285 509,285 507,282 507,280 507,278 506,276 504,275 503,274 502,272 502,271 502,269 501,268 499,266 498,265 497,264 497,263 498,261 498,260 498,257 497,256 495,256 494,255 492,253 490,252 489,253 488,252 486,251 485,251 484,250 482,249 481,247 479,247 478,246 476,247 475,247 473,248 471,248 469,248 466,250 465,250 464,251 462,251 462,253 460,255 457,256 454,256 451,257 448,258 447,260 444,260 441,257 441,256 438,256 437,257 434,256 430,255 426,255 423,253 422,254 420,256 419,254 418,253 416,253 415,251 414,250 413,250 412,248 410,247 410,244 412,242 413,239 414,238 415,236 417,236 419,236 419,235 418,234 417,233 418,231 417,227 417,225 420,222 420,221 421,219 424,216 426,214 427,213 429,211 430,210 433,209 434,207 434,205 434,203 433,202 434,201 433,199 433,198 432,195 430,193 429,191 429,189 428,188 428,186 430,185 432,185 433,186 435,185 437,182 437,181 439,180 442,180 444,180 447,179 449,179 453,179 455,179 457,180 461,181 463,181 465,182 468,183 470,183 471,183 474,186 476,186 478,186 479,186 479,188 480,187 481,186 483,187 485,186 486,186 488,187 490,187 491,189 493,188 494,187 495,186 496,185 497,186 498,188 499,190 501,190 504,189 506,189 508,188 510,189 511,190 512,191 513,192 515,192 515,190 515,187 514,186 515,184 516,183 517,180 518,179 520,177 521,176 523,177 524,176 527,176 529,176 531,176 532,177 534,177 535,176 537,172 539,172 540,172 542,173 547,171 548,171 550,171 552,171 554,171 555,172 556,173 557,175 559,178 562,182 560,184 559,184 559,186 560,187 560,190 561,191 560,192 563,193 565,194 566,194 568,194 569,194 571,194 572,197 573,197 573,198 574,200 574,202 575,203 575,205 575,207 576,208 577,210 579,209 581,209 582,209 584,210 585,211 586,212 588,212 589,213 591,213 591,212 594,211 596,210 597,210 600,209 600,211 601,212 602,213 603,215 606,218 607,219 608,218 609,217 612,218 615,218 616,219 618,221 620,220 622,221 624,222 627,224 629,225 631,225 632,225 632,227 633,229 633,232 631,234 630,235 628,236 628,237 630,239 631,239 630,240 629,240 628,241 627,243 627,244 629,244 630,246 630,248 630,249 631,250 630,252 629,254 629,256 628,258 624,258 621,258 618,258 616,260 615,261 613,262 611,262 610,263 610,265 610,267 609,268 610,269 609,270 609,272Z M533,288 534,289 533,288 529,287 527,287 526,285 527,286 533,288Z M254,264 255,265 254,268 254,270 254,272 255,272 257,273 258,273 258,274 260,275 262,276 264,274 266,275 265,278 265,280 264,282 262,280 261,281 260,283 261,284 262,286 261,287 260,285 259,285 256,286 254,285 253,284 251,282 251,284 251,286 250,287 248,290 248,291 248,293 247,294 246,293 245,291 245,290 243,289 242,288 241,287 241,284 240,283 239,284 238,285 236,286 237,288 235,290 233,292 230,292 228,292 227,293 224,293 223,293 222,291 221,290 220,288 221,286 220,285 218,284 216,284 214,284 213,285 214,287 213,288 212,289 210,287 212,286 212,285 211,284 212,282 212,280 214,279 216,278 216,276 216,275 218,273 219,272 221,270 222,268 223,267 222,266 222,265 224,264 225,265 226,266 228,265 229,263 230,263 234,263 236,263 238,262 239,262 241,262 242,262 241,261 241,260 242,259 244,261 246,261 249,261 252,262 254,264Z M372,52 371,54 369,55 369,60 370,62 369,63 368,66 366,67 364,69 363,72 362,73 362,71 363,69 362,68 361,66 360,65 361,63 361,61 361,58 362,57 363,56 364,54 366,52 368,51 369,52 369,50 372,52Z M341,87 340,88 339,87 339,83 339,81 342,74 343,73 345,69 345,67 346,65 347,64 347,66 345,71 345,75 341,87Z M277,24 278,27 280,26 281,24 282,21 282,17 282,14 281,11 283,7 283,5 284,3 286,3 288,1 290,-1 291,-3 291,-6 291,-8 292,-9 292,-11 292,-14 290,-17 289,-22 288,-25 291,-26 293,-26 294,-28 294,-30 295,-31 295,-33 296,-34 294,-37 292,-39 291,-40 288,-42 287,-44 288,-51 288,-56 289,-59 286,-67 286,-69 287,-70 286,-73 286,-76 287,-78 287,-80 285,-86 287,-91 287,-94 289,-96 291,-101 293,-104 295,-106 297,-107 300,-108 305,-107 309,-106 310,-108 311,-111 311,-113 311,-117 310,-119 308,-120 305,-122 309,-128 311,-133 314,-139 315,-142 315,-143 316,-154 317,-157 317,-158 317,-162 316,-168 321,-169 322,-169 324,-170 327,-172 328,-174 327,-179 329,-181 333,-188 337,-195 339,-197 340,-200 339,-203 338,-205 336,-209 337,-212 338,-212 340,-213 341,-215 344,-224 349,-229 351,-231 354,-229 358,-227 360,-231 361,-232 361,-234 361,-238 361,-243 361,-245 363,-246 369,-244 372,-244 375,-243 380,-241 382,-240 385,-241 387,-244 383,-246 386,-248 387,-250 388,-253 388,-256 388,-258 387,-259 385,-262 390,-263 392,-263 395,-261 395,-258 398,-256 399,-254 401,-252 402,-251 404,-250 405,-248 407,-247 409,-245 411,-244 413,-243 418,-241 419,-240 421,-238 422,-236 423,-232 425,-232 425,-231 427,-228 429,-226 427,-224 427,-221 427,-218 428,-215 427,-213 427,-212 427,-210 429,-209 431,-206 429,-204 429,-201 429,-199 429,-197 430,-195 432,-193 433,-191 433,-190 433,-188 432,-186 432,-184 432,-182 430,-180 430,-179 429,-176 430,-174 430,-172 430,-170 432,-169 433,-166 434,-164 435,-158 432,-158 429,-159 428,-158 426,-158 424,-158 423,-157 420,-158 418,-160 416,-158 414,-160 413,-158 412,-157 412,-153 410,-153 410,-151 410,-150 408,-150 408,-148 407,-147 405,-146 403,-146 403,-144 404,-143 403,-142 402,-144 402,-142 403,-141 403,-139 401,-135 400,-133 399,-131 398,-129 399,-128 400,-126 400,-124 401,-121 403,-119 402,-118 399,-114 396,-111 393,-102 392,-101 389,-99 388,-98 386,-96 383,-95 381,-93 380,-91 379,-91 378,-92 378,-90 376,-91 375,-90 374,-87 372,-84 369,-85 370,-84 367,-83 366,-81 366,-80 364,-79 363,-78 365,-78 365,-76 362,-74 361,-72 360,-73 358,-73 358,-75 358,-73 358,-72 359,-70 358,-69 359,-68 358,-66 357,-64 355,-63 353,-64 352,-65 351,-63 352,-60 353,-58 355,-57 353,-56 352,-52 352,-50 351,-48 352,-45 352,-43 351,-43 349,-44 349,-42 348,-40 348,-38 348,-35 349,-33 349,-32 349,-29 349,-25 350,-20 350,-18 351,-16 354,-16 354,-15 355,-13 357,-14 359,-13 361,-10 362,-9 364,-8 366,-6 366,-4 366,-3 369,-2 370,-1 371,1 371,4 371,6 368,8 367,10 366,11 364,13 362,14 359,16 361,17 362,16 365,15 367,17 365,17 364,20 363,21 360,23 359,24 357,25 355,26 352,28 351,30 348,31 346,33 342,33 338,32 337,33 339,34 343,34 344,34 346,37 344,37 342,38 343,41 344,43 343,44 343,50 341,52 342,54 342,56 342,58 342,60 342,61 340,65 340,67 341,70 340,73 339,75 339,78 337,80 336,82 334,89 333,90 332,91 331,90 330,89 326,90 323,90 319,90 319,93 316,92 315,93 315,94 313,96 312,97 312,100 313,102 314,104 312,107 307,106 301,108 296,106 296,105 297,102 297,100 296,98 295,96 292,91 291,88 291,87 294,88 295,88 294,86 293,84 294,83 296,82 296,80 295,79 292,75 290,73 287,66 285,61 284,61 284,59 283,57 283,56 281,55 281,49 279,48 278,45 278,40 276,39 275,38 275,32 275,28 274,26 274,25 274,23 276,22 277,24Z M373,50 373,51 372,50 373,49 375,49 373,50Z M175,396 176,397 178,396 179,397 178,399 178,400 177,401 176,403 175,404 172,403 170,403 170,401 169,400 167,401 166,400 171,395 172,395 175,394 176,395 175,396Z M189,396 185,394 184,393 186,392 188,392 190,394Z M154,410 152,411 152,409 153,408 156,407 156,408 155,410Z M114,336 114,338 116,339 118,339 119,340 118,342 119,343 120,342 122,343 125,344 127,344 129,347 131,347 133,347 134,348 136,349 139,348 140,349 143,349 144,348 144,347 146,346 149,347 150,348 151,348 153,349 154,350 154,352 155,353 156,353 157,352 159,353 160,354 161,354 163,353 166,354 168,354 169,354 171,353 173,352 175,353 176,354 177,355 175,356 175,357 176,358 176,361 175,363 173,364 165,369 163,371 156,374 151,375 149,376 146,379 145,380 147,381 145,383 144,383 141,388 138,391 137,393 135,395 132,401 132,402 134,408 135,410 136,411 138,412 138,414 136,416 131,418 130,420 129,422 128,423 128,425 127,427 126,429 127,431 126,431 120,432 116,434 114,437 112,441 110,444 108,443 106,443 104,444 103,444 102,445 100,444 97,444 94,445 92,445 89,444 82,445 80,446 78,448 75,448 72,449 70,452 70,454 69,455 67,455 64,455 62,453 60,451 59,449 59,448 57,446 57,445 58,443 59,442 57,443 56,441 51,437 47,437 44,438 44,434 43,432 44,429 45,428 46,426 47,425 49,424 50,423 48,422 45,418 46,416 46,414 47,413 48,412 49,411 49,409 49,407 47,407 46,404 45,402 44,400 43,399 48,398 50,396 51,394 51,392 49,391 50,389 51,388 52,387 52,385 52,383 52,380 51,379 50,377 52,375 53,373 55,372 57,371 58,369 59,368 58,366 56,366 55,364 55,362 53,361 52,361 49,361 48,361 47,362 45,363 42,363 38,362 36,363 34,362 36,360 35,358 30,359 29,360 28,361 26,358 28,357 29,356 27,355 28,354 27,352 27,350 25,350 24,349 26,347 24,347 23,346 22,344 23,340 24,340 26,338 29,338 30,338 32,337 34,336 34,334 35,333 37,332 39,331 41,330 42,331 45,332 46,333 49,334 51,333 54,333 56,334 59,333 61,333 64,332 66,334 70,334 73,335 80,336 83,336 86,336 88,335 89,335 92,335 94,336 99,337 100,336 104,336 107,338 109,338 112,338 114,337Z M-66,568 -67,571 -68,572 -70,573 -72,571 -73,569 -71,568 -69,567 -66,565 -63,565 -66,568Z M-34,560 -34,561 -35,559 -33,557 -31,557 -30,555 -31,559 -32,559 -34,560Z M-40,570 -41,572 -43,572 -42,571 -40,570 -39,567 -37,564 -37,562 -35,563 -35,567 -36,569 -40,570Z M-54,571 -54,573 -54,575 -56,576 -58,576 -60,574 -58,572 -58,571 -55,571Z M-85,576 -86,578 -88,577 -87,576 -86,575Z M-85,566 -85,565 -87,562 -86,561 -84,561 -83,563 -83,564 -85,566Z M415,235 415,237 413,239 413,241 410,244 410,247 406,249 405,248 404,246 402,245 401,245 399,246 397,246 395,245 392,245 390,245 388,250 385,251 383,252 381,252 380,251 378,251 378,252 375,254 370,254 369,255 368,256 369,258 368,259 365,259 361,259 358,259 356,259 355,259 353,257 351,255 349,255 348,253 346,251 345,248 345,246 346,244 347,242 347,240 348,239 350,239 353,240 354,239 356,238 357,238 358,237 360,236 360,234 361,232 364,230 364,229 366,228 367,227 369,227 371,227 371,229 373,229 375,227 376,226 378,227 379,228 380,229 381,229 381,231 381,232 383,232 385,233 385,231 387,230 388,229 390,229 393,229 394,230 396,230 397,228 399,228 404,229 407,230 408,231 409,232 411,233 414,235Z M341,282 338,282 337,283 337,284 336,285 334,286 332,287 331,288 329,288 330,290 330,293 330,294 328,295 325,296 326,297 325,299 326,300 325,301 323,301 321,300 320,301 319,300 318,299 317,298 316,299 315,300 313,300 311,301 309,300 309,301 305,301 306,299 308,299 307,297 306,296 304,295 305,292 303,292 304,290 305,289 304,288 303,287 302,286 303,285 304,284 306,283 306,282 309,282 311,283 313,283 315,284 316,284 318,283 319,282 320,281 321,280 325,280 327,280 329,280 330,279 331,279 334,279 334,277 335,276 338,276 338,277 339,279 339,280 341,282Z M417,322 416,323 416,325 414,326 413,327 413,329 413,331 414,332 415,335 415,336 417,337 419,338 421,340 420,342 419,343 417,345 416,345 414,346 414,348 414,350 414,351 415,352 414,354 413,355 412,354 410,355 408,355 407,355 405,356 404,356 403,356 404,354 405,350 404,349 401,348 400,346 399,345 398,343 397,342 395,341 394,340 393,340 391,340 392,342 390,344 390,346 388,346 387,345 386,344 383,342 381,342 380,341 378,340 377,338 375,336 374,335 375,333 376,334 378,332 376,329 375,327 376,327 378,327 377,324 376,322 374,322 373,321 373,318 374,316 375,314 376,313 376,311 374,310 372,311 373,309 372,307 373,306 375,306 376,306 376,305 373,303 372,302 372,300 371,299 371,297 370,295 369,294 370,293 372,292 372,291 374,292 376,291 377,290 378,289 380,289 382,289 386,289 388,290 388,292 390,293 392,295 393,296 393,297 394,300 395,301 395,303 396,303 398,304 399,305 401,305 402,306 402,308 401,309 401,310 403,310 402,311 401,312 403,313 404,314 405,315 407,315 409,316 410,317 411,317 413,315 415,314 417,315 418,316 416,317 415,318 415,320 417,321 417,322Z M485,301 487,303 488,304 492,305 493,304 496,303 498,302 500,302 502,302 503,303 504,304 504,306 503,309 502,312 496,313 496,311 496,309 495,309 494,310 494,312 494,313 493,315 493,317 493,318 491,320 491,321 491,327 490,330 488,331 486,330 483,329 482,328 481,327 480,327 477,326 476,326 472,324 469,324 464,325 461,326 457,329 456,330 454,331 452,332 448,332 443,331 439,330 436,330 433,330 428,329 424,329 420,329 419,328 420,327 421,326 420,324 418,323 417,322 417,321 415,320 415,318 416,317 418,316 417,315 415,314 413,315 411,317 410,317 409,316 407,315 405,315 404,314 403,313 401,312 402,311 403,310 401,310 401,309 402,308 402,306 401,305 399,305 398,304 396,303 395,303 395,301 394,301 393,298 393,296 392,295 391,294 389,292 388,290 387,289 390,288 391,289 393,288 393,287 397,287 398,286 398,285 399,284 400,281 401,280 402,279 403,276 404,274 404,273 406,271 407,268 408,267 409,264 410,263 411,262 412,261 413,260 415,259 417,259 419,256 422,255 423,253 426,255 429,255 433,256 436,257 438,256 441,256 441,257 444,259 445,260 448,258 451,257 454,256 457,256 460,255 461,254 462,251 464,251 465,250 467,250 469,251 470,252 471,254 472,256 473,258 474,260 475,262 476,263 477,265 478,267 479,268 480,269 481,271 483,273 484,274 485,277 485,279 486,280 486,282 485,285 484,289 484,292 484,293 485,295 485,296 484,298 485,300 485,301Z M-77,503 -75,504 -73,503 -71,504 -72,506 -75,506 -76,505 -77,504Z M28,361 29,360 30,359 33,358 34,358 35,360 34,361 35,363 37,363 41,362 43,363 46,362 47,361 48,361 51,361 53,361 55,362 55,364 55,366 57,366 59,367 58,369 57,371 55,372 53,373 52,375 51,376 51,379 52,380 52,382 52,385 52,387 51,388 50,389 49,390 51,392 51,394 50,396 49,398 44,398 44,400 45,401 46,404 47,407 49,407 49,409 49,411 48,412 47,413 46,414 46,416 45,418 48,422 50,422 49,424 47,425 46,426 45,428 44,429 43,431 44,434 44,438 39,440 35,439 31,439 30,439 28,439 26,440 26,438 27,434 27,431 27,429 27,427 26,426 27,422 27,420 26,418 29,418 28,417 26,417 24,418 22,416 22,415 24,414 25,413 25,411 26,409 27,408 25,409 24,412 23,413 22,414 20,414 19,412 19,410 20,407 20,405 20,404 22,402 23,400 25,396 27,391 26,390 28,383 29,381 29,378 29,376 29,374 28,372 27,368 27,366 26,364 28,361Z M-199,415 -202,414 -203,413 -201,412 -200,412 -199,413 -199,415Z M-208,416 -212,415 -213,415 -214,413 -210,415 -208,416Z M-212,418 -211,418 -213,419 -215,418 -217,418 -217,416 -212,418Z M-181,427 -177,427 -176,429 -179,429 -182,429 -184,428 -183,426 -181,427Z M428,188 429,189 429,191 430,193 432,195 433,198 433,199 435,200 434,201 434,203 434,205 434,207 433,208 430,210 429,211 427,213 426,214 424,216 421,219 420,221 420,222 417,225 417,226 418,230 418,232 418,234 419,235 419,236 417,236 416,235 411,233 409,232 408,231 407,230 405,229 401,228 398,228 396,230 395,230 393,229 391,229 390,229 388,229 386,230 385,233 383,232 381,233 381,231 381,229 380,229 379,228 378,227 377,225 375,226 373,229 371,229 371,227 369,226 369,225 366,222 366,220 365,219 363,219 362,218 360,217 359,217 358,218 356,217 355,215 354,215 355,214 356,212 354,212 352,212 349,210 346,209 346,211 347,212 345,213 344,214 343,215 340,212 339,211 337,210 338,208 339,207 339,206 339,205 338,205 335,205 334,204 332,204 331,203 328,202 326,201 325,200 325,199 323,198 322,198 322,199 321,201 321,198 321,196 322,193 321,190 321,189 319,187 319,185 318,184 317,183 318,180 319,177 318,176 318,174 317,172 316,171 317,169 317,167 316,165 313,162 311,160 312,158 313,157 314,155 315,153 315,152 313,146 313,145 313,143 316,144 317,144 316,143 316,140 314,140 312,139 312,138 314,138 318,136 325,134 333,131 335,131 337,131 338,129 339,128 341,125 345,124 347,123 350,121 357,119 360,119 363,119 366,120 368,122 369,123 367,123 365,121 366,126 367,128 369,129 371,129 376,129 378,128 383,128 386,128 392,128 398,128 404,129 411,129 418,129 419,128 421,129 421,130 423,131 424,132 426,133 427,134 427,135 427,138 428,145 431,152 432,155 432,157 432,160 432,161 432,164 427,167 425,169 423,171 423,173 425,174 427,174 428,176 429,177 428,180 429,182 428,184 428,186 428,188Z M392,-263 390,-263 385,-262 387,-259 388,-258 388,-256 388,-253 387,-250 386,-248 383,-246 387,-244 385,-241 383,-240 380,-241 375,-243 372,-244 370,-244 364,-247 361,-245 361,-243 361,-238 361,-234 361,-232 360,-231 358,-227 354,-229 351,-231 349,-229 344,-224 342,-216 340,-213 338,-212 337,-212 336,-209 338,-205 339,-203 340,-200 340,-198 337,-195 333,-188 329,-181 327,-179 328,-174 327,-172 324,-170 322,-169 321,-169 316,-168 317,-162 317,-160 317,-157 316,-154 315,-143 315,-142 314,-139 311,-133 309,-128 305,-122 308,-120 310,-119 311,-117 311,-113 311,-111 310,-108 310,-107 305,-107 301,-108 297,-107 295,-106 293,-104 291,-101 289,-96 287,-94 287,-91 285,-86 286,-80 287,-78 287,-76 286,-73 287,-70 286,-69 286,-67 289,-59 289,-57 288,-51 287,-44 288,-42 291,-40 292,-39 294,-37 296,-34 295,-33 295,-31 294,-30 294,-28 293,-26 291,-26 289,-26 289,-22 290,-17 292,-14 292,-11 292,-9 291,-8 291,-6 291,-3 290,-1 288,1 287,2 285,3 283,5 283,7 281,10 282,14 282,17 282,21 281,24 280,26 279,27 277,24 277,22 274,21 272,20 270,20 269,17 268,15 268,10 267,8 267,6 267,7 267,10 266,11 265,12 265,13 266,15 265,18 263,23 262,24 261,24 259,25 258,25 258,24 255,22 256,24 255,26 251,28 253,29 252,30 250,31 247,35 242,41 239,43 237,45 236,45 234,46 229,48 225,47 223,48 222,46 222,45 220,44 220,46 218,46 218,44 219,43 218,42 217,42 211,39 210,38 207,36 205,33 204,31 205,29 205,25 209,25 212,28 213,26 215,24 212,26 211,25 209,23 210,21 210,19 210,17 211,15 213,14 214,12 216,11 214,11 212,13 211,14 209,16 207,16 205,17 204,19 203,20 200,20 200,19 200,13 201,11 202,9 204,7 205,8 208,8 209,7 210,6 213,4 211,5 208,5 207,3 208,2 210,-1 211,-2 212,-3 212,-6 215,-9 217,-10 218,-9 217,-5 219,-9 219,-10 220,-11 222,-12 220,-12 215,-10 212,-9 212,-7 210,-5 209,-4 209,-2 208,-1 207,-0 205,2 204,4 202,6 201,7 200,9 199,7 200,4 200,2 201,1 200,-1 201,-2 203,-2 207,-3 205,-4 203,-4 202,-5 200,-8 200,-11 205,-16 206,-17 204,-15 201,-14 200,-16 199,-18 198,-22 198,-24 198,-26 199,-27 200,-27 204,-27 210,-28 214,-27 216,-27 218,-29 220,-29 222,-28 223,-27 223,-25 223,-24 223,-26 223,-27 230,-30 230,-31 228,-31 227,-33 228,-36 227,-35 226,-32 227,-31 225,-29 222,-29 220,-30 219,-30 218,-32 217,-31 217,-29 215,-29 211,-29 206,-29 204,-28 202,-28 199,-30 198,-32 198,-35 198,-36 200,-37 202,-38 200,-39 199,-41 198,-42 197,-43 197,-46 197,-48 200,-48 204,-48 208,-47 211,-45 216,-46 220,-48 215,-47 212,-47 206,-49 204,-50 201,-49 200,-50 199,-52 200,-55 201,-56 203,-55 203,-57 204,-57 205,-59 207,-61 209,-62 211,-61 213,-60 218,-62 219,-64 216,-63 214,-62 212,-62 213,-64 213,-65 214,-67 215,-67 218,-68 220,-68 222,-68 226,-67 229,-66 231,-66 229,-67 230,-69 233,-70 236,-71 236,-72 228,-70 226,-71 224,-71 223,-71 220,-70 220,-72 222,-75 223,-77 228,-79 230,-81 232,-81 234,-81 236,-80 238,-78 239,-77 243,-74 239,-79 238,-80 237,-82 238,-84 239,-86 242,-86 243,-89 241,-90 240,-90 240,-92 242,-94 244,-95 246,-96 249,-94 249,-92 250,-91 252,-94 254,-94 255,-95 258,-92 259,-91 260,-89 261,-90 262,-90 264,-91 267,-90 269,-91 269,-93 269,-95 272,-97 274,-98 275,-99 277,-100 276,-102 275,-103 276,-104 278,-106 276,-107 275,-107 273,-105 271,-103 273,-101 272,-99 264,-94 261,-92 259,-92 259,-94 258,-95 257,-97 255,-97 255,-100 256,-102 258,-103 259,-105 260,-108 263,-111 267,-118 270,-120 272,-122 273,-123 275,-125 279,-127 280,-129 277,-128 276,-127 276,-129 277,-132 278,-134 287,-140 288,-139 289,-137 291,-137 294,-141 296,-144 295,-144 294,-142 291,-140 289,-140 289,-142 287,-142 286,-143 286,-145 287,-149 288,-151 289,-153 293,-158 293,-161 295,-163 297,-162 297,-165 295,-166 302,-170 305,-170 307,-171 308,-172 310,-173 306,-173 303,-172 301,-172 299,-171 298,-178 298,-181 300,-184 301,-186 303,-186 304,-187 305,-189 307,-188 309,-189 306,-191 305,-192 306,-193 307,-194 310,-198 311,-199 314,-200 315,-200 317,-201 319,-202 327,-202 327,-203 326,-204 320,-204 317,-204 315,-203 315,-205 316,-206 317,-208 319,-211 321,-214 323,-213 325,-211 327,-211 329,-207 329,-210 330,-212 328,-212 326,-213 325,-215 325,-216 325,-218 326,-219 322,-217 320,-217 320,-219 319,-221 323,-226 325,-226 327,-225 330,-226 326,-228 326,-229 328,-231 330,-233 332,-234 334,-235 335,-234 336,-229 337,-224 337,-228 338,-229 339,-230 338,-231 337,-232 336,-237 337,-238 339,-241 342,-241 345,-240 348,-240 351,-241 353,-242 354,-243 353,-244 349,-243 342,-243 341,-246 341,-248 342,-249 345,-251 348,-251 351,-255 353,-257 353,-262 355,-265 360,-267 360,-270 360,-273 361,-277 362,-278 364,-277 365,-274 367,-273 370,-272 368,-275 367,-277 367,-279 367,-280 370,-280 371,-281 372,-283 372,-285 374,-288 380,-290 380,-283 379,-279 379,-276 381,-279 382,-287 383,-291 385,-293 387,-294 388,-295 389,-292 388,-285 388,-283 387,-280 384,-274 386,-274 390,-280 393,-280 392,-282 391,-284 390,-286 391,-291 392,-294 394,-294 396,-294 397,-293 398,-293 399,-297 402,-297 404,-295 406,-293 408,-290 407,-297 406,-299 404,-300 401,-303 400,-304 403,-306 406,-305 409,-308 411,-308 413,-307 414,-309 417,-311 419,-309 420,-308 421,-305 422,-301 423,-298 424,-297 426,-298 425,-299 425,-301 425,-304 426,-306 429,-311 432,-314 434,-315 437,-321 438,-322 438,-324 437,-325 437,-327 439,-330 441,-334 443,-334 444,-333 446,-331 448,-329 449,-328 450,-330 453,-330 454,-329 455,-328 454,-326 452,-322 449,-317 448,-315 448,-309 446,-305 445,-302 446,-301 448,-302 451,-305 452,-309 458,-320 461,-326 464,-331 466,-332 467,-328 466,-324 465,-321 466,-320 466,-317 466,-315 465,-313 465,-312 470,-316 471,-319 472,-322 473,-324 474,-327 477,-327 474,-331 473,-332 475,-334 478,-337 480,-337 481,-336 485,-336 488,-333 488,-329 487,-327 486,-326 482,-323 482,-322 483,-321 486,-323 486,-321 485,-318 485,-313 485,-310 485,-307 485,-306 486,-312 487,-313 488,-315 489,-320 490,-325 492,-328 493,-329 496,-329 498,-327 499,-325 500,-324 503,-323 504,-321 505,-320 507,-322 508,-323 511,-320 510,-317 513,-317 515,-316 519,-311 520,-309 519,-307 513,-304 511,-301 507,-300 493,-302 493,-300 503,-296 503,-295 503,-292 503,-290 504,-288 505,-287 507,-287 509,-287 510,-288 510,-291 512,-291 513,-287 514,-289 516,-289 518,-289 519,-284 519,-283 519,-281 517,-280 515,-280 512,-282 510,-284 510,-282 510,-279 509,-278 509,-277 508,-275 506,-274 500,-272 498,-265 497,-263 495,-262 494,-264 493,-266 493,-268 496,-271 498,-274 499,-278 497,-285 493,-287 488,-290 486,-292 483,-296 482,-299 480,-299 478,-298 475,-295 473,-294 472,-293 470,-294 467,-294 465,-294 462,-289 460,-287 459,-286 458,-284 458,-282 456,-274 455,-271 455,-269 455,-264 455,-261 454,-259 453,-258 450,-257 449,-255 448,-253 447,-249 445,-248 443,-248 442,-250 439,-251 437,-252 435,-253 433,-255 432,-255 431,-253 430,-252 427,-250 425,-249 423,-249 422,-250 419,-251 415,-252 413,-254 412,-257 410,-261 408,-263 406,-267 404,-271 402,-271 399,-271 398,-270 397,-269 398,-264 397,-263 395,-264 392,-264 392,-263Z M199,-8 199,-5 198,-6 197,-8 197,-10 198,-11 199,-10 199,-8Z M507,-290 505,-288 505,-291 506,-293 508,-292 508,-291 507,-290Z M284,-153 284,-152 282,-152 282,-155 283,-155 285,-155 284,-153Z M241,-96 239,-97 241,-98 244,-99 245,-98 241,-96Z M236,-87 234,-88 233,-88 234,-90 236,-91 237,-90 237,-88Z M426,-327 426,-325 425,-323 422,-319 420,-318 419,-317 417,-317 415,-316 414,-315 411,-317 409,-319 409,-321 411,-321 413,-321 414,-323 416,-323 419,-324 420,-323 423,-327 426,-328Z M453,-339 456,-338 459,-335 460,-334 458,-333 456,-333 453,-332 452,-335 450,-335 451,-338 453,-339Z M429,-317 429,-315 428,-312 425,-309 424,-308 423,-307 422,-310 420,-311 420,-313 421,-315 423,-316 428,-320 429,-317Z M434,-318 431,-316 430,-317 429,-319 429,-322 429,-323 431,-324 432,-323 433,-323 434,-321 434,-318Z M308,-237 311,-236 310,-234 308,-233 307,-232 305,-231 303,-229 302,-230 302,-228 300,-228 300,-231 300,-232 301,-233 302,-233 304,-236 306,-237 308,-237Z M297,-224 295,-222 296,-225 297,-228 298,-230 298,-228 298,-226 297,-224Z M324,-260 326,-256 327,-254 326,-250 325,-248 322,-248 321,-248 319,-249 319,-250 317,-249 315,-250 314,-252 316,-254 316,-255 318,-255 319,-254 320,-256 320,-258 322,-258 322,-261 324,-261 324,-260Z M381,-305 383,-304 384,-302 385,-301 384,-300 383,-299 381,-300 381,-301 380,-303 379,-305 379,-307 381,-305Z M393,-300 392,-299 390,-300 389,-301 390,-304 392,-305 394,-305 393,-300Z M375,-299 376,-297 377,-298 379,-298 379,-296 377,-294 376,-290 374,-290 372,-288 370,-286 369,-284 369,-282 364,-281 362,-280 361,-281 360,-283 362,-284 362,-286 363,-288 365,-289 366,-290 367,-289 368,-291 367,-292 369,-295 370,-297 371,-298 372,-300 372,-302 373,-306 375,-303 375,-299Z M291,-161 290,-162 291,-164 292,-164 294,-165 294,-163 291,-161Z M290,-166 289,-167 290,-168 290,-170 292,-170 292,-168 292,-166 290,-166Z M275,-131 273,-130 270,-130 269,-131 270,-132 273,-134 275,-132Z M353,-282 354,-280 356,-281 357,-280 358,-279 360,-277 360,-275 359,-274 358,-273 358,-271 358,-268 356,-267 354,-267 353,-268 351,-266 349,-262 348,-263 346,-264 344,-264 345,-265 346,-266 347,-268 346,-271 347,-273 348,-275 351,-275 352,-276 350,-278 351,-280 353,-281Z M331,-246 333,-250 335,-251 336,-253 336,-255 336,-256 338,-257 340,-256 340,-255 341,-252 341,-249 338,-247 337,-246 335,-243 334,-241 332,-241 330,-240 327,-238 326,-238 326,-240 324,-238 323,-237 321,-238 317,-234 314,-234 313,-236 315,-239 317,-241 323,-242 327,-248 328,-255 329,-257 328,-258 327,-261 328,-263 330,-266 331,-267 333,-271 334,-272 336,-271 336,-269 334,-265 332,-262 332,-260 333,-258 333,-255 333,-252 332,-248 331,-246Z M25,-328 24,-328 25,-331 31,-335 33,-339 37,-341 37,-338 37,-336 33,-333 29,-332 25,-328Z M374,-476 373,-474 370,-476 369,-480 370,-481 374,-481 375,-480 374,-476Z M469,-704 467,-703 464,-708 463,-712 464,-714 465,-714 468,-708 471,-707 469,-704Z M539,-803 527,-800 526,-802 545,-810 546,-810 550,-811 553,-810 552,-808 539,-803Z M404,-700 405,-699 409,-699 411,-689 412,-678 414,-677 418,-678 421,-679 422,-678 425,-675 427,-673 425,-671 423,-669 422,-663 425,-661 429,-657 432,-656 436,-658 440,-654 445,-649 435,-644 434,-642 433,-638 431,-635 430,-633 427,-629 426,-628 422,-628 421,-627 420,-624 418,-622 415,-621 414,-624 415,-627 414,-631 417,-635 418,-637 416,-638 414,-639 412,-636 409,-635 407,-634 397,-631 395,-632 395,-638 399,-642 399,-647 400,-650 402,-653 404,-659 399,-664 397,-667 394,-674 394,-679 390,-684 391,-689 388,-689 387,-693 388,-695 397,-698 402,-700 404,-700Z M395,-812 396,-811 403,-811 404,-810 405,-805 406,-804 407,-804 411,-798 412,-798 413,-800 414,-808 414,-816 414,-821 414,-823 415,-824 417,-824 418,-826 420,-828 421,-829 424,-827 425,-825 424,-822 424,-817 422,-807 425,-807 429,-809 431,-812 433,-816 435,-815 436,-816 437,-818 437,-820 438,-820 440,-815 441,-815 442,-816 445,-814 452,-811 454,-809 455,-808 456,-807 464,-807 469,-806 471,-803 472,-798 473,-787 471,-784 461,-771 458,-767 457,-763 455,-755 454,-753 449,-749 444,-750 438,-746 436,-743 435,-740 433,-739 430,-739 420,-741 418,-743 417,-748 419,-753 407,-751 394,-752 393,-755 389,-757 385,-758 383,-762 380,-765 381,-767 382,-768 384,-769 386,-768 390,-768 391,-772 392,-773 394,-776 390,-778 385,-778 383,-776 379,-775 376,-775 371,-775 368,-777 364,-782 363,-784 363,-786 362,-789 366,-792 368,-794 370,-797 363,-798 361,-801 358,-804 360,-806 369,-808 371,-807 373,-804 376,-802 378,-806 376,-807 374,-813 373,-816 374,-818 375,-817 378,-812 381,-810 381,-815 381,-818 381,-820 380,-823 379,-828 381,-829 382,-828 385,-825 388,-823 390,-821 392,-816 395,-812Z M344,-787 345,-788 346,-790 349,-790 354,-786 355,-784 357,-780 358,-773 357,-768 356,-764 355,-762 356,-758 356,-755 355,-752 357,-755 362,-766 364,-766 366,-764 368,-758 369,-757 369,-754 369,-751 369,-748 369,-746 368,-745 367,-743 370,-741 371,-738 373,-736 377,-738 381,-736 382,-730 385,-731 385,-734 386,-735 389,-734 391,-733 393,-730 390,-725 393,-720 397,-717 400,-713 401,-711 401,-709 399,-707 397,-705 393,-705 389,-703 381,-702 380,-701 379,-698 376,-693 373,-687 372,-683 371,-678 371,-675 372,-672 371,-669 369,-666 366,-667 364,-665 364,-663 364,-660 364,-652 364,-645 363,-639 362,-636 361,-635 357,-635 354,-629 352,-619 351,-615 349,-609 349,-607 350,-605 348,-601 346,-596 346,-595 347,-591 347,-588 346,-585 343,-584 340,-585 339,-587 337,-590 336,-592 334,-594 329,-600 323,-611 319,-616 316,-618 314,-620 313,-622 311,-625 310,-629 310,-632 309,-635 310,-637 310,-638 314,-639 316,-639 317,-637 318,-636 321,-646 337,-651 342,-652 347,-652 346,-654 346,-658 341,-657 335,-655 332,-655 329,-656 326,-655 323,-653 320,-651 317,-650 311,-650 309,-652 307,-655 306,-657 306,-659 306,-666 306,-667 307,-669 310,-668 313,-664 313,-668 322,-673 326,-677 328,-678 331,-678 330,-680 330,-682 332,-684 333,-684 336,-685 344,-685 347,-686 349,-689 347,-688 344,-688 343,-689 341,-691 340,-694 343,-701 344,-705 341,-704 340,-703 336,-697 334,-694 330,-692 327,-693 325,-698 325,-700 326,-704 327,-708 327,-711 325,-709 324,-705 322,-702 321,-703 320,-705 319,-707 318,-708 317,-707 315,-705 316,-702 316,-699 315,-697 315,-694 316,-692 317,-689 316,-688 314,-686 312,-683 311,-680 308,-680 305,-679 299,-678 296,-682 296,-684 295,-685 293,-687 290,-693 288,-700 286,-701 284,-703 283,-705 282,-708 282,-711 282,-714 283,-715 280,-718 277,-723 278,-724 279,-725 288,-720 290,-723 288,-724 286,-724 285,-728 284,-731 284,-733 283,-736 285,-740 286,-744 285,-745 281,-745 280,-745 280,-739 279,-736 277,-733 275,-734 274,-741 272,-746 271,-749 271,-754 270,-757 269,-761 269,-763 269,-765 270,-769 269,-772 269,-775 268,-777 269,-779 271,-780 273,-777 274,-774 275,-779 277,-780 281,-781 286,-775 287,-774 288,-776 287,-780 288,-781 292,-778 294,-778 298,-782 306,-784 308,-781 309,-779 309,-777 307,-774 298,-772 292,-764 300,-765 301,-764 302,-758 305,-756 306,-754 307,-751 309,-748 310,-751 310,-754 310,-758 310,-762 310,-765 312,-767 314,-775 317,-780 320,-778 323,-771 325,-762 327,-753 330,-741 331,-737 333,-737 338,-725 337,-733 335,-749 333,-761 332,-765 332,-772 332,-774 332,-775 334,-782 336,-786 335,-791 335,-795 337,-798 339,-798 341,-795 344,-787Z M275,-701 276,-697 278,-697 280,-693 283,-690 283,-689 284,-687 285,-682 286,-678 284,-677 282,-684 280,-687 277,-690 275,-691 274,-692 270,-703 270,-706 268,-710 267,-716 267,-720 270,-719 272,-716 274,-710 274,-708 273,-706 274,-703 275,-701Z M368,-816 366,-812 361,-815 362,-818 363,-820 365,-819 368,-816Z M496,-720 500,-720 503,-721 504,-720 499,-716 494,-718 489,-719 483,-715 481,-716 484,-720 487,-721 488,-723 489,-724 493,-724 496,-720Z M210,203 208,203 207,202 206,201 207,199 208,196 208,195 206,194 205,193 204,192 202,193 199,191 199,189 197,190 196,190 195,188 194,189 192,189 190,189 189,191 187,190 186,189 184,190 182,189 180,188 179,187 180,186 183,186 184,186 187,189 189,188 188,188 187,187 186,186 188,186 187,184 185,182 186,179 187,178 188,177 190,174 192,172 193,169 194,161 195,160 195,159 197,159 199,158 203,156 204,153 205,152 209,150 211,149 215,149 217,149 221,148 222,150 222,151 224,151 225,152 225,154 225,158 224,160 223,163 223,165 220,165 219,167 220,169 222,169 223,170 223,173 223,174 221,175 220,176 219,177 220,178 220,180 217,181 215,181 213,180 211,181 210,183 211,185 212,186 213,188 213,191 211,193 212,195 210,197 209,197 210,198 211,200 210,203Z M188,190 188,192 186,193 184,194 183,193 182,192 180,193 178,192 178,190 181,190 182,191 184,191 186,190 187,191 188,190Z M202,150 200,149 203,149 205,148 202,150Z M185,183 186,184 185,185 183,184 182,184 183,183 185,183Z M374,334 374,336 377,338 378,340 380,341 381,342 383,342 386,344 387,345 388,346 386,347 385,347 384,348 385,350 385,351 383,352 381,352 381,350 379,351 378,352 377,353 376,355 376,356 375,357 376,359 376,362 374,361 373,359 370,356 367,354 366,353 365,352 364,351 366,350 365,347 365,344 367,343 367,341 367,340 368,339 370,338 371,339 372,337 371,336 371,334 372,335 374,334Z M466,250 469,248 471,248 473,248 475,247 476,247 477,246 479,247 481,247 482,248 483,249 484,250 486,251 487,252 488,253 489,252 492,253 494,255 495,256 496,255 498,257 498,259 498,261 497,263 497,264 498,265 499,266 501,268 502,269 502,271 502,272 502,274 504,275 506,276 507,278 507,280 507,282 509,284 506,285 505,284 503,284 501,284 499,283 498,284 498,282 496,282 495,283 494,285 495,288 495,290 493,292 492,292 492,294 491,295 490,296 489,297 489,299 489,300 487,300 485,301 485,300 484,299 485,298 485,295 484,293 484,292 484,289 485,285 486,283 486,280 485,279 485,277 484,274 483,273 481,271 480,270 479,268 478,267 477,265 476,264 475,262 474,260 473,258 472,256 471,254 471,253 469,251 468,250 466,250Z M212,215 212,217 213,219 214,220 216,221 216,223 216,224 215,227 213,227 212,227 211,228 210,227 208,227 208,225 209,224 208,222 207,221 207,219 208,217 209,216 210,214 212,214Z M396,109 396,107 397,105 397,103 397,105 397,108 396,109Z M418,129 417,126 417,123 419,119 418,117 416,116 416,114 413,114 410,114 407,113 405,112 403,111 402,110 400,110 399,108 399,106 398,102 397,98 397,93 400,89 404,87 409,85 413,85 416,85 418,85 419,85 421,86 423,85 429,86 431,86 433,87 435,88 438,87 440,87 442,85 444,84 445,86 447,89 448,90 453,91 457,94 458,95 459,96 461,98 462,99 463,100 465,101 465,102 465,104 465,106 464,107 467,109 468,110 466,111 466,113 462,112 461,113 460,115 459,116 458,117 456,117 455,119 455,122 455,123 454,125 453,127 453,129 453,130 455,131 455,133 454,134 452,133 452,131 450,131 448,132 447,133 444,134 443,137 441,137 439,138 437,139 436,138 433,138 432,138 430,139 428,138 427,138 427,135 427,134 426,133 424,132 423,131 421,130 421,129 419,128Z M465,101 463,100 462,99 461,98 459,96 458,95 457,94 454,91 448,90 447,89 445,86 445,85 443,85 440,87 438,87 435,88 433,87 431,86 429,86 423,85 422,86 421,85 418,85 416,85 413,85 410,85 405,86 400,89 397,92 396,88 397,79 397,75 399,73 401,71 401,68 401,66 402,64 405,58 408,57 411,56 415,55 416,56 417,57 421,62 423,64 425,69 429,72 432,71 434,70 437,67 438,65 438,64 438,56 437,53 437,51 439,50 443,48 445,48 447,47 449,48 449,47 453,49 455,50 456,51 458,52 458,53 461,56 462,57 464,59 468,58 470,57 473,59 475,59 476,59 477,61 479,63 480,64 481,66 481,67 479,70 479,72 478,75 480,74 481,75 482,77 483,79 484,81 485,85 485,87 485,89 484,90 482,92 479,95 478,98 476,98 474,98 471,97 470,98 468,100 466,101Z M388,346 390,346 390,344 392,343 392,341 393,340 394,339 394,340 396,341 398,343 399,344 400,346 401,346 404,349 406,349 404,353 403,354 403,356 401,357 400,358 398,357 393,359 393,362 391,362 391,360 390,357 389,356 387,355 386,353 385,351 385,350 384,348 385,347 386,347 388,346Z M223,293 224,293 227,293 228,292 230,292 233,293 235,291 237,288 236,287 238,285 239,284 240,283 241,284 241,286 242,288 243,289 245,290 245,291 246,293 247,294 248,294 248,292 248,290 250,287 251,286 251,284 251,282 253,283 254,285 255,286 257,285 259,285 261,287 262,286 261,284 260,283 261,281 262,280 263,281 265,281 265,279 266,276 267,276 269,277 271,278 273,277 273,276 274,274 275,274 278,274 280,273 282,274 284,273 287,272 286,274 288,276 289,278 290,279 291,279 292,280 295,280 299,281 301,281 303,281 306,282 305,283 303,285 302,286 302,287 304,288 305,289 304,290 303,291 305,292 304,294 305,295 307,297 308,298 307,299 305,295 303,296 300,295 299,297 298,298 296,298 294,299 292,300 291,301 291,299 289,300 288,301 288,303 288,305 290,308 291,310 291,312 290,313 288,312 288,314 289,319 290,322 291,324 293,326 296,328 301,332 303,333 306,337 307,340 309,346 310,349 312,352 316,356 320,359 324,361 327,362 334,361 336,362 337,363 335,365 333,367 333,368 334,370 341,373 348,376 350,377 353,379 358,382 359,384 363,387 365,389 365,391 364,393 364,395 363,396 362,395 360,394 357,389 353,388 350,387 349,385 347,385 346,386 344,388 343,391 341,395 341,397 342,399 344,400 347,401 348,403 348,407 349,409 348,410 346,410 344,411 342,412 341,414 341,417 341,418 338,421 336,424 335,426 331,426 330,424 330,422 331,421 332,420 333,417 333,415 334,414 337,413 337,410 336,409 335,407 335,403 332,399 331,395 331,393 329,392 327,392 321,389 322,387 321,385 321,384 320,383 317,383 315,383 314,383 315,381 313,380 311,380 310,379 308,375 306,373 304,373 302,372 299,372 298,373 297,372 295,370 293,369 287,363 286,361 282,359 280,355 279,354 276,353 275,354 274,351 272,348 270,347 269,345 268,344 266,344 266,342 266,340 266,337 264,335 263,329 262,327 261,326 257,325 251,321 247,319 245,319 242,320 239,324 236,328 235,328 232,330 229,330 229,329 230,327 231,326 231,324 227,324 225,323 222,322 222,321 222,319 221,318 222,315 223,314 223,312 221,311 220,310 219,309 218,307 220,306 223,305 224,305 224,303 223,300 222,299 221,297 220,296 220,295 222,294 223,293Z M265,346 265,347 263,348 261,347 263,347 265,346Z M329,421 328,423 325,428 324,430 324,432 323,435 324,436 325,438 326,440 324,442 323,443 323,445 321,445 317,444 316,444 314,441 313,440 311,439 308,439 307,438 304,437 302,435 300,434 299,433 298,433 296,432 294,432 293,431 291,430 290,428 291,426 292,424 293,423 294,422 295,424 297,424 298,424 299,422 301,422 302,423 303,423 306,425 307,425 309,425 310,424 313,425 315,424 317,424 319,423 320,422 322,422 323,422 325,422 328,420 330,421Z M255,379 256,380 257,384 257,386 256,389 256,390 256,393 256,394 255,403 255,405 255,406 252,406 251,406 249,406 248,405 248,408 247,410 246,410 244,410 243,410 241,407 240,406 240,401 241,400 241,398 242,397 241,395 240,393 241,392 241,388 240,387 240,386 239,384 238,382 237,381 238,379 240,379 242,379 244,378 245,378 248,375 249,374 250,373 251,373 253,374 254,376 255,377 254,378 255,379Z M13,139 12,138 9,137 10,136 12,137 13,139Z M47,113 45,115 44,117 43,119 43,120 41,121 39,122 39,123 40,124 37,126 36,127 38,130 39,132 41,133 42,134 44,134 46,133 47,132 47,130 48,129 49,128 50,129 51,130 52,132 54,133 54,135 55,136 57,135 58,135 60,136 59,137 58,137 58,139 59,142 60,144 60,146 60,147 60,149 60,151 61,154 61,156 62,159 61,160 60,162 60,163 59,164 59,167 58,170 56,171 58,173 56,174 55,174 53,174 51,174 50,173 49,175 47,175 44,175 43,177 42,178 39,179 38,181 36,181 34,181 34,180 33,182 32,184 30,185 28,185 27,186 21,188 20,188 18,187 16,188 16,186 18,185 14,185 12,186 12,185 13,183 14,183 15,181 17,180 11,182 10,182 8,182 8,181 9,178 11,178 12,177 13,176 9,175 8,175 8,174 10,172 12,172 13,173 15,173 14,172 14,170 15,168 17,167 21,166 24,165 27,164 26,163 25,163 24,164 23,165 20,165 18,165 15,166 13,166 16,165 18,162 20,160 19,159 21,156 23,155 24,154 26,153 24,153 23,152 19,153 18,152 17,151 15,151 14,150 15,149 12,149 11,148 11,146 12,146 14,145 16,145 14,144 13,143 16,141 18,141 16,139 13,140 14,138 14,137 14,135 13,134 11,133 12,131 13,131 16,130 18,130 21,130 23,132 24,131 28,131 30,132 30,130 30,128 31,127 34,126 35,124 35,123 31,124 28,122 28,121 30,120 31,119 32,118 32,116 33,114 34,112 35,112 37,111 40,111 41,110 42,111 43,113 42,114 41,116 44,114 43,112 43,110 46,109 45,108 46,108 48,109 49,110 50,110 49,112 47,112Z M-56,-171 -53,-172 -52,-173 -49,-175 -48,-176 -46,-176 -47,-174 -48,-173 -50,-170 -51,-168 -50,-166 -48,-165 -47,-166 -46,-165 -45,-163 -46,-161 -46,-159 -48,-158 -47,-157 -42,-158 -42,-156 -41,-155 -43,-151 -41,-153 -39,-153 -36,-153 -35,-152 -34,-150 -33,-151 -32,-149 -33,-147 -34,-146 -35,-145 -34,-143 -33,-142 -34,-141 -32,-139 -32,-137 -32,-135 -34,-135 -35,-133 -35,-130 -37,-128 -38,-127 -39,-126 -41,-126 -42,-127 -42,-125 -43,-124 -42,-122 -43,-120 -44,-118 -45,-118 -47,-116 -49,-115 -50,-114 -53,-114 -56,-113 -60,-111 -63,-109 -65,-107 -68,-103 -70,-102 -73,-101 -75,-100 -82,-99 -84,-98 -86,-95 -85,-94 -86,-93 -88,-92 -89,-93 -89,-91 -95,-89 -102,-90 -105,-91 -109,-93 -111,-93 -114,-93 -116,-95 -118,-97 -117,-99 -116,-99 -117,-100 -119,-98 -120,-99 -122,-100 -124,-101 -126,-102 -125,-104 -127,-104 -129,-102 -141,-101 -144,-101 -145,-102 -145,-105 -145,-106 -145,-108 -144,-107 -143,-106 -139,-107 -137,-108 -135,-110 -135,-111 -133,-114 -133,-115 -131,-116 -130,-116 -131,-117 -136,-115 -136,-116 -135,-117 -136,-117 -136,-120 -133,-123 -131,-124 -132,-124 -135,-122 -138,-121 -139,-122 -140,-124 -139,-126 -142,-128 -145,-128 -153,-129 -154,-129 -157,-127 -159,-127 -160,-128 -161,-129 -161,-130 -160,-132 -157,-132 -155,-133 -153,-133 -151,-134 -150,-133 -147,-135 -146,-135 -145,-135 -142,-136 -140,-136 -135,-136 -134,-137 -133,-140 -137,-138 -141,-139 -142,-140 -140,-143 -138,-145 -135,-146 -134,-148 -136,-149 -140,-149 -141,-150 -144,-151 -146,-151 -147,-152 -150,-150 -156,-148 -158,-147 -160,-146 -161,-148 -164,-149 -167,-149 -165,-152 -163,-152 -161,-151 -159,-150 -161,-153 -161,-155 -162,-157 -161,-158 -160,-157 -156,-155 -154,-155 -153,-156 -152,-157 -156,-157 -157,-158 -159,-160 -158,-161 -155,-161 -157,-163 -158,-164 -158,-166 -155,-165 -156,-167 -155,-169 -154,-170 -152,-169 -149,-167 -149,-165 -149,-164 -147,-164 -145,-165 -144,-164 -144,-163 -144,-161 -143,-161 -141,-162 -141,-164 -142,-166 -146,-169 -148,-171 -147,-172 -142,-172 -144,-174 -145,-175 -146,-174 -148,-174 -150,-175 -149,-176 -148,-177 -145,-178 -143,-178 -141,-178 -140,-176 -138,-174 -136,-172 -134,-170 -132,-167 -129,-165 -130,-163 -129,-162 -128,-161 -128,-156 -129,-155 -132,-156 -131,-155 -130,-153 -129,-152 -128,-150 -129,-148 -128,-148 -127,-147 -126,-143 -125,-146 -124,-147 -124,-148 -123,-151 -121,-153 -120,-154 -118,-152 -117,-153 -116,-156 -116,-159 -116,-163 -116,-165 -115,-167 -113,-167 -112,-166 -110,-162 -108,-160 -107,-158 -105,-157 -104,-159 -105,-164 -104,-165 -104,-167 -101,-167 -100,-168 -99,-169 -98,-170 -96,-169 -95,-168 -94,-166 -92,-163 -90,-161 -89,-157 -88,-159 -89,-161 -91,-167 -90,-169 -86,-169 -84,-168 -82,-164 -81,-163 -80,-164 -78,-167 -76,-170 -74,-169 -72,-168 -70,-170 -68,-170 -67,-172 -69,-178 -68,-179 -65,-180 -62,-180 -60,-178 -59,-176 -58,-173 -56,-171Z M410,247 412,248 413,250 414,250 415,251 416,253 417,253 419,254 419,256 417,259 416,259 414,259 412,260 411,262 410,263 409,264 409,266 407,267 406,271 405,272 404,273 403,276 402,277 401,280 400,280 399,283 399,284 398,286 397,287 394,287 393,287 392,289 390,288 387,289 386,289 383,288 380,289 379,288 377,290 376,291 374,292 372,291 372,292 371,293 368,293 366,295 364,295 363,296 359,295 357,295 355,294 354,293 352,292 351,291 350,290 349,289 347,288 346,287 345,285 344,284 341,283 339,280 339,279 338,277 338,276 335,276 337,274 340,273 340,272 340,271 339,269 340,267 341,266 342,265 343,264 342,262 340,261 341,260 342,260 344,261 345,261 347,260 347,259 348,257 349,255 350,255 353,257 355,259 356,259 358,259 361,259 365,259 368,259 369,258 368,256 369,255 370,254 375,254 377,253 378,251 380,251 381,252 383,252 385,251 388,250 390,246 392,245 395,245 396,245 399,246 401,245 402,245 404,246 404,248 405,249 410,248Z M391,419 392,421 394,423 391,423 390,422 389,421 388,422 389,420 391,419Z M395,428 396,429 394,430 393,429 392,428 392,426 393,427 395,428Z M392,415 391,416 391,413 392,412 393,415Z M385,402 383,403 382,402 381,400 379,397 380,396 382,396 383,397 382,398 383,399 383,401 384,402Z M426,410 427,411 429,413 432,414 435,414 435,416 436,417 436,420 437,421 438,422 440,423 441,425 440,425 438,425 437,424 436,423 436,422 435,420 434,419 432,419 429,418 429,416 427,415 425,413 424,412 423,412 421,411 420,412 421,410 423,409 424,409 426,410Z M443,383 441,384 440,383 441,381 442,380 443,382 443,383Z M422,453 420,453 420,451 422,452Z M473,464 471,462 472,460 473,459 473,460 472,462 473,463 473,464Z M470,445 471,443 473,442 475,443 473,443 471,444 470,445Z M452,441 451,442 451,441 450,439 452,437 453,440Z M468,428 470,428 471,429 469,430 467,430 465,429 466,428 467,428Z M458,432 459,431 462,430 461,432 458,432Z M456,444 457,442 459,442 456,444Z M446,429 443,428 442,426 443,425 444,426 445,427 446,429Z M459,421 458,422 457,421 457,420 458,418 456,417 458,415 459,416 460,418 460,420 459,421Z M463,404 465,406 465,408 464,408 465,409 463,409 460,409 461,406 459,408 457,407 456,406 457,404 459,404 460,403 462,403 463,404Z M451,393 450,395 449,396 449,395 448,396 446,395 446,393 449,393 450,393 451,392Z M481,457 479,457 480,455 479,453 481,452 482,451 485,449 485,453 484,454 482,455 481,457Z M432,463 434,463 434,462 436,463 435,464 436,464 437,466 439,466 441,465 446,465 447,466 449,466 452,466 455,466 455,468 456,469 457,468 458,468 460,468 462,466 462,469 461,470 459,471 456,471 453,471 448,472 443,472 443,471 441,469 439,469 433,468 432,467 430,468 428,467 428,465 428,463 430,463 430,461 431,463Z M462,365 464,366 465,367 466,368 466,370 465,371 462,373 462,374 462,376 462,377 461,379 460,380 459,381 456,379 452,379 450,378 447,377 446,377 443,379 440,378 438,378 436,380 434,381 433,381 430,381 431,383 432,384 431,385 432,386 436,388 437,389 438,391 436,390 435,389 434,388 432,387 430,388 431,390 432,391 433,393 433,394 431,393 429,389 426,389 426,391 429,394 426,393 425,392 425,390 422,388 420,387 419,385 420,383 418,384 416,385 417,387 416,389 416,391 416,392 419,396 420,399 421,400 422,401 424,403 425,404 425,406 424,407 422,407 423,406 421,404 419,405 420,406 421,409 420,410 419,411 416,411 417,411 418,412 421,413 423,414 426,417 428,417 429,419 431,420 433,421 434,423 434,426 434,428 434,429 432,428 430,427 428,425 426,425 423,426 422,426 423,428 423,431 425,431 426,432 427,433 424,435 423,435 422,434 421,433 419,432 418,431 418,434 419,436 421,440 422,443 421,446 422,448 423,449 422,448 419,445 418,444 416,444 415,447 415,449 413,448 413,446 411,442 410,441 410,440 408,441 408,442 407,445 405,443 403,439 403,437 405,436 403,432 401,431 400,428 399,428 398,427 400,424 401,422 403,422 405,421 406,420 408,420 412,422 415,423 417,424 418,425 420,426 420,424 422,424 423,423 422,422 420,422 419,421 418,420 416,419 414,418 413,419 408,418 406,419 404,419 402,420 401,418 400,417 400,419 398,419 397,417 396,415 395,413 393,412 393,410 395,410 397,411 398,409 397,409 395,408 393,409 392,408 391,407 390,405 388,404 386,400 385,399 384,398 385,398 387,398 387,397 389,396 388,394 389,393 389,392 391,392 392,391 392,389 393,388 394,386 396,385 396,384 397,382 396,380 397,379 400,379 401,378 403,379 406,378 408,375 410,374 414,375 416,374 418,374 418,372 419,371 421,371 423,371 424,370 426,370 428,370 430,370 432,369 433,369 434,368 436,368 438,368 439,368 440,369 441,370 443,371 446,371 447,372 449,373 450,372 452,372 455,372 457,372 459,371 460,370 459,367 459,366 461,364 462,365Z M254,264 252,262 250,261 246,261 245,260 243,259 241,260 241,261 242,262 241,262 239,262 238,262 236,263 234,263 232,263 230,262 229,261 230,259 230,257 230,255 230,252 232,250 232,247 233,245 233,243 234,242 237,239 237,237 235,236 233,236 230,235 228,233 227,234 225,234 224,234 223,233 222,232 220,233 218,231 217,229 216,228 215,227 215,225 216,223 217,222 214,220 213,219 212,218 212,215 213,213 215,211 215,210 214,208 213,207 213,206 212,205 211,203 211,200 210,198 209,198 210,197 212,195 211,194 213,191 213,189 212,187 212,185 210,183 211,181 212,181 214,181 216,181 220,180 220,179 219,177 220,176 221,175 223,174 223,173 223,170 222,169 221,169 219,168 219,166 223,165 223,163 224,160 225,158 225,154 225,152 224,150 224,148 224,146 225,144 231,143 235,143 237,146 237,148 238,149 239,147 239,145 241,146 241,149 242,146 241,144 242,141 242,140 246,140 250,140 252,141 255,145 256,146 251,140 250,139 248,139 247,138 246,137 246,131 245,130 243,131 243,128 246,128 247,127 247,125 246,124 245,122 244,120 244,118 246,118 250,119 251,120 254,119 255,119 257,119 259,120 259,121 260,122 260,124 259,126 258,127 262,126 263,128 264,127 269,130 272,129 273,131 272,133 270,135 271,137 274,137 277,138 281,134 282,134 286,133 287,132 288,131 289,129 292,127 294,127 296,128 298,128 299,131 303,134 306,134 307,136 308,140 309,141 313,142 313,145 313,146 315,152 315,153 314,155 313,157 312,158 311,159 313,162 316,165 317,167 317,169 316,171 317,172 318,174 318,176 319,177 318,179 317,181 318,184 319,185 318,187 321,189 321,190 322,193 321,196 321,198 320,200 319,201 318,201 317,199 316,198 314,197 313,198 314,199 312,201 311,201 310,202 308,202 306,203 304,204 303,205 301,205 300,206 299,207 297,208 297,209 294,209 293,210 290,210 289,212 289,213 288,213 286,211 286,213 287,214 288,216 290,217 290,218 291,219 291,221 290,222 290,223 292,225 293,228 294,229 296,230 297,231 299,233 300,234 301,235 302,237 304,237 306,239 307,240 307,241 307,243 306,245 303,244 302,248 301,249 300,249 298,250 296,251 295,252 294,253 295,255 297,257 296,260 297,260 298,261 298,264 296,264 294,263 293,261 291,262 290,261 288,261 287,262 281,263 279,263 278,264 277,265 275,266 273,266 272,266 271,264 269,264 266,263 265,266 264,268 262,268 262,267 261,266 260,265 258,263 256,264Z M306,129 306,130 305,130 302,131 299,130 299,128 299,126 300,124 301,122 303,123 305,125 305,126 306,129Z M312,138 312,139 310,140 309,139 309,137 307,135 310,136 312,138Z M239,120 239,117 240,114 240,116 240,118 243,118 240,119 239,120Z M254,347 253,349 254,350 255,358 253,361 253,365 252,366 251,369 250,370 248,369 246,368 245,367 246,366 245,365 244,363 244,361 243,361 244,359 243,358 242,357 244,355 243,354 243,353 244,351 245,350 248,349 249,348 250,348 251,349 252,347 252,344 252,343 253,344 254,346Z M230,263 229,263 228,265 226,266 225,265 224,264 222,265 222,266 223,267 222,268 221,270 219,272 218,273 216,274 216,276 216,278 214,279 212,280 212,282 211,284 212,285 212,286 210,287 211,289 213,288 214,287 213,286 214,284 216,284 218,284 220,284 220,286 220,288 221,290 222,291 223,292 222,294 220,295 220,296 221,297 222,299 223,300 224,302 224,305 223,305 221,307 219,306 218,308 219,309 220,311 222,311 223,314 222,315 221,317 221,318 222,321 222,322 225,323 227,324 230,323 231,324 230,327 229,328 229,329 228,331 226,332 225,332 221,336 219,337 219,339 218,340 214,341 212,342 208,342 206,340 203,340 202,338 200,338 199,337 197,336 196,337 195,337 191,336 188,335 187,334 185,334 183,336 177,340 175,342 174,345 174,350 176,352 174,353 172,353 170,353 169,354 166,354 163,353 162,354 161,354 160,353 157,352 158,351 156,350 154,350 153,349 151,348 150,348 149,347 146,346 144,347 144,348 143,349 141,348 139,349 136,349 134,348 133,347 131,347 129,347 127,345 126,344 122,343 120,342 119,343 118,342 119,341 119,339 117,339 115,338 114,337 116,336 118,334 120,326 121,317 122,315 123,314 122,313 121,314 121,306 122,303 123,300 125,301 126,302 127,303 128,307 129,309 128,307 127,302 126,301 125,300 122,297 121,295 123,296 123,293 122,288 122,286 120,285 114,282 112,279 111,277 110,275 111,273 110,271 109,270 110,269 111,268 114,269 112,268 107,268 105,268 106,266 106,265 105,264 102,264 102,262 101,262 98,262 97,261 95,260 93,260 88,258 86,258 84,259 82,257 81,256 78,254 80,253 82,253 81,251 80,250 82,250 84,249 82,248 80,248 78,248 77,247 78,245 80,243 86,242 88,242 90,242 92,241 93,240 96,239 99,240 102,244 103,245 106,243 110,243 111,244 113,242 114,243 118,243 117,240 117,233 115,230 114,227 113,225 113,223 115,223 117,224 119,223 121,223 121,225 121,227 122,229 124,229 127,230 130,230 134,231 136,230 138,229 141,228 140,228 138,227 138,225 138,223 144,220 148,219 152,217 154,216 155,213 156,212 156,203 156,201 157,200 158,199 160,198 166,196 168,198 168,200 169,201 170,203 171,203 174,202 175,203 176,204 177,207 179,208 181,208 182,211 183,211 185,211 188,213 188,214 188,215 188,217 190,218 192,218 194,217 194,215 195,215 195,218 196,220 197,221 199,222 201,223 202,224 203,226 204,227 206,226 208,226 209,227 211,228 212,227 213,227 215,228 217,229 218,230 220,233 221,233 223,233 223,234 225,234 227,234 228,233 229,235 233,236 235,236 237,237 237,238 234,242 233,243 233,245 232,247 232,250 230,252 230,254 230,257 230,259 229,261 230,262Z M122,293 121,295 120,293 119,292 119,290 120,291 122,293Z M696,1096 694,1095 694,1094 694,1093 696,1093 696,1096Z M827,1205 825,1205 822,1204 820,1201 821,1199 823,1198 825,1199 826,1201 828,1202 827,1204Z M-617,753 -620,753 -619,751 -621,751 -622,749 -621,748 -619,749 -618,749 -618,751 -617,753Z M-623,731 -626,731 -625,729 -625,727 -624,728 -621,730 -623,731Z M-626,733 -628,734 -628,733 -629,730 -627,729 -626,730 -626,733Z M-540,905 -538,904 -537,904 -536,901 -535,899 -535,897 -535,895 -533,893 -532,891 -532,890 -533,888 -535,887 -537,884 -537,883 -538,880 -538,879 -538,876 -538,874 -538,873 -536,870 -535,869 -534,868 -532,864 -531,863 -526,865 -523,865 -519,867 -517,869 -513,872 -511,873 -512,875 -510,874 -508,876 -507,878 -508,880 -507,878 -506,877 -505,878 -504,881 -503,883 -504,884 -505,885 -505,886 -507,887 -507,888 -509,891 -510,893 -510,894 -512,895 -512,896 -513,898 -514,901 -515,903 -516,904 -517,906 -518,906 -520,907 -521,907 -523,907 -524,906 -525,906 -527,906 -528,906 -530,905 -531,906 -533,908 -535,908 -538,907 -539,906Z M435,-158 434,-164 433,-166 432,-169 430,-170 430,-172 430,-174 429,-176 429,-178 430,-180 432,-182 432,-184 432,-186 433,-188 433,-189 433,-191 432,-193 430,-195 429,-197 429,-199 429,-201 429,-203 430,-205 430,-209 428,-210 427,-211 427,-213 428,-215 427,-218 427,-221 427,-224 429,-226 427,-228 425,-231 425,-232 423,-232 422,-236 421,-238 419,-240 418,-241 413,-243 411,-244 409,-245 407,-247 405,-248 404,-250 402,-251 401,-252 399,-254 398,-256 395,-258 395,-260 392,-263 392,-264 395,-264 397,-263 398,-264 397,-268 398,-270 399,-271 402,-271 404,-271 406,-267 408,-263 410,-261 412,-257 413,-254 414,-252 419,-251 422,-250 423,-249 425,-249 427,-250 430,-252 431,-253 432,-255 433,-255 435,-253 437,-252 439,-251 442,-250 443,-248 445,-248 447,-249 448,-253 449,-255 450,-257 452,-257 454,-259 455,-261 455,-264 455,-269 455,-271 456,-274 458,-282 458,-284 459,-286 460,-287 462,-289 465,-294 467,-294 470,-294 472,-293 473,-294 475,-295 478,-298 480,-299 482,-299 483,-296 486,-292 488,-290 493,-287 497,-285 499,-278 498,-275 496,-271 493,-268 493,-266 494,-264 495,-262 491,-260 490,-259 488,-258 492,-257 492,-256 492,-254 489,-246 489,-244 490,-239 491,-234 496,-232 499,-230 502,-225 505,-220 507,-217 507,-213 505,-209 502,-206 500,-202 498,-198 496,-194 496,-192 496,-191 499,-186 500,-183 501,-181 502,-178 503,-175 504,-173 504,-171 505,-170 506,-167 507,-165 509,-158 509,-156 508,-154 506,-154 504,-153 505,-151 504,-148 504,-144 503,-142 505,-140 505,-139 504,-137 503,-136 503,-134 503,-132 504,-130 505,-129 509,-128 509,-125 507,-122 508,-118 509,-116 512,-114 514,-112 514,-110 514,-108 514,-106 513,-104 510,-100 508,-99 508,-97 513,-92 516,-89 520,-86 522,-84 523,-82 524,-80 525,-78 526,-77 527,-75 525,-72 525,-70 524,-66 522,-64 519,-60 515,-54 514,-53 511,-50 508,-45 507,-44 504,-39 502,-38 501,-37 498,-33 495,-29 492,-27 491,-25 490,-24 489,-23 485,-19 480,-13 479,-12 477,-12 473,-13 471,-13 470,-12 467,-11 466,-11 465,-12 465,-14 466,-15 464,-14 464,-12 463,-11 461,-10 459,-12 458,-11 459,-9 457,-9 456,-8 455,-7 454,-8 452,-8 451,-6 449,-6 448,-5 445,-4 441,-3 440,-1 438,-1 434,-0 430,1 428,1 427,0 425,2 423,4 421,5 422,2 423,1 423,-1 421,-2 420,-5 419,-3 418,-1 417,-1 414,-1 414,-2 414,-4 415,-5 416,-6 415,-7 416,-9 412,-10 408,-12 406,-15 404,-13 403,-14 402,-15 401,-17 401,-19 401,-21 401,-24 401,-27 402,-28 403,-32 403,-36 402,-38 402,-39 404,-40 403,-42 402,-46 401,-49 399,-51 400,-54 401,-57 400,-60 398,-62 398,-65 397,-68 398,-69 398,-71 399,-72 402,-77 402,-79 404,-79 403,-81 403,-84 406,-84 407,-84 410,-85 413,-86 412,-88 412,-90 412,-91 415,-94 415,-96 418,-97 421,-101 423,-102 424,-103 427,-107 429,-109 432,-113 434,-117 437,-120 439,-125 440,-127 440,-129 443,-130 445,-131 447,-131 449,-130 449,-132 449,-133 450,-135 450,-136 449,-139 449,-142 450,-145 450,-149 449,-151 444,-154 442,-154 441,-157 441,-159 438,-158 436,-159Z M399,-85 401,-85 401,-83 400,-83 398,-83 397,-86 399,-86Z M411,-9 412,-9 414,-8 412,-7 413,-5 412,-4 411,-6 410,-7 410,-9Z M402,-13 401,-12 399,-13 399,-15 402,-13Z M444,-134 442,-133 441,-134 440,-136 441,-137 443,-137 445,-136 444,-135Z M475,59 473,59 471,58 469,57 465,59 462,57 461,56 458,53 458,52 456,51 455,50 453,49 450,47 449,48 448,47 445,48 443,48 439,50 438,51 439,46 439,42 440,41 438,39 437,40 435,42 433,41 430,40 430,38 429,36 428,35 427,33 428,31 429,30 428,30 426,26 427,25 427,24 427,22 427,20 429,19 431,18 434,17 434,15 438,13 441,13 444,12 451,12 452,11 452,9 453,9 456,9 464,11 466,11 469,13 470,14 475,14 482,14 483,13 484,15 484,16 482,17 481,20 480,23 478,26 477,27 476,28 476,30 477,38 477,40 477,43 478,45 478,48 479,50 480,51 477,53 477,55 475,56 475,57 475,59Z M416,33 418,34 420,34 425,37 423,38 421,39 420,41 418,42 415,43 413,43 412,44 411,47 410,49 410,50 408,49 410,45 410,44 409,43 407,42 408,41 408,39 407,36 409,36 410,37 411,36 413,34 414,34 416,33Z M420,29 419,30 418,29 417,31 415,32 415,30 414,28 412,27 411,27 409,26 414,25 415,24 416,22 417,24 420,25 421,26 421,28Z M425,35 422,34 422,33 425,33 425,35Z M292,98 292,101 291,102 290,102 289,103 288,104 287,105 288,106 290,107 290,109 289,110 286,111 286,114 286,116 285,119 283,120 282,117 281,115 280,111 278,111 276,111 274,108 275,105 274,104 273,102 272,100 275,99 276,99 278,96 280,95 281,96 281,97 281,100 282,100 283,99 284,97 284,96 283,94 285,92 287,91 290,91 291,92 292,93 292,94 292,98Z M257,119 255,119 254,119 252,120 250,119 246,118 244,118 243,116 242,113 244,112 243,108 243,106 240,104 237,102 237,96 238,94 237,90 237,86 237,80 239,80 241,81 243,82 244,81 244,80 246,77 248,76 249,77 250,78 250,75 251,71 249,70 248,71 246,74 245,77 243,78 241,79 240,78 239,77 239,74 241,71 243,69 245,69 247,68 251,68 253,67 254,66 258,60 260,58 263,57 267,54 266,56 266,58 267,61 266,62 266,66 265,67 264,71 264,75 264,80 265,81 266,82 270,82 271,84 271,86 271,87 269,88 268,89 265,87 264,89 263,93 262,97 260,96 259,97 260,99 259,100 258,101 256,103 255,105 255,106 256,108 256,110 256,111 254,113 253,115 256,115 257,116 257,119Z M268,102 269,103 269,106 270,108 270,111 270,113 268,114 265,114 263,114 260,112 259,110 258,108 258,104 260,104 264,102 265,103 268,102Z M277,118 279,119 282,120 282,122 281,123 278,123 273,120 273,118 276,116 277,118Z M269,121 268,119 269,118 269,116 271,114 271,112 271,114 269,120Z M292,116 289,116 287,118 287,116 287,116 288,114 290,115 291,115Z M266,119 264,118 263,117 264,117 266,118Z M261,118 259,118 257,114 260,116 261,117Z M268,98 266,97 266,94 268,95 268,97Z M273,65 271,65 272,64 273,64 273,65Z M323,115 320,115 318,113 318,110 319,109 324,112 323,115Z M369,227 367,227 366,228 364,229 364,230 361,231 360,233 360,235 358,236 357,238 356,238 354,239 353,240 350,239 349,239 347,240 347,242 346,244 345,242 344,242 342,240 340,240 339,241 337,241 335,241 332,239 329,238 327,237 325,237 323,236 321,240 320,241 318,243 316,244 314,244 312,244 310,244 309,242 308,241 307,240 306,239 304,237 302,237 301,235 300,234 299,233 297,231 296,230 294,229 293,228 292,225 291,224 290,223 290,221 291,220 290,218 290,217 288,216 287,215 287,214 286,212 288,213 288,214 289,212 290,210 292,210 294,209 296,209 297,208 299,207 300,206 301,205 303,205 304,204 306,203 308,202 310,202 311,201 312,201 314,200 313,199 313,197 316,198 316,199 317,201 318,201 320,201 322,200 322,198 323,198 325,199 325,200 326,201 328,202 330,203 332,204 334,204 334,205 338,205 339,205 339,206 339,207 338,208 337,209 338,210 340,212 342,215 343,215 345,214 347,213 346,211 345,209 349,210 352,212 354,212 355,212 356,213 354,214 355,215 356,216 357,218 359,217 362,218 363,219 365,219 366,220 366,222 369,225 369,226Z M304,300 308,301 309,301 312,300 314,301 316,299 317,297 318,299 319,300 320,301 321,300 323,301 325,301 326,301 326,299 326,298 325,296 328,295 330,294 330,293 330,290 329,289 330,288 332,287 333,286 335,285 337,285 337,283 338,282 341,282 344,284 345,285 346,287 347,288 349,289 350,290 351,291 352,292 353,292 355,294 357,295 359,295 362,296 364,295 366,295 367,293 369,293 370,295 371,297 371,299 372,300 372,301 373,303 375,304 376,305 375,306 373,306 372,307 373,309 372,310 371,311 369,310 368,309 367,308 365,307 363,307 362,307 359,307 358,308 355,306 353,307 351,306 348,306 346,304 344,306 341,305 340,306 339,308 338,309 336,308 335,306 333,305 332,306 331,309 331,311 331,313 333,315 335,317 336,318 336,320 337,323 338,324 339,325 340,326 342,328 343,330 345,332 348,335 350,335 350,338 352,340 354,343 355,344 351,341 348,340 345,337 342,336 339,334 338,334 336,335 334,335 334,333 332,331 330,330 328,328 324,323 323,322 325,322 326,321 325,320 322,316 321,314 320,312 321,309 320,308 317,305 316,304 314,303 313,304 312,306 311,309 310,310 309,312 306,309 305,307 305,305 304,301Z M342,343 345,344 346,344 348,344 349,345 346,345 345,345 343,345 343,344Z M349,341 343,341 341,341 339,340 341,340 342,340 347,341 349,341Z M344,339 342,339 340,339 340,338 342,337 345,337 344,339Z M320,309 318,310 317,309 315,308 316,306 317,305 318,307 320,309Z M324,321 322,320 321,318 319,315 320,316 322,317 323,319 325,320Z M324,328 321,324 324,328Z M316,315 314,313 313,311 314,309 313,306 314,308 315,310 315,311 315,314Z M354,347 356,348 351,347 354,347Z M364,351 365,352 363,351 361,350 357,347 354,346 350,344 347,343 349,343 356,346 357,345 358,347 360,348 361,349 363,350 364,351Z M483,361 481,360 480,361 478,361 475,360 474,359 471,359 469,360 466,361 465,362 464,363 463,364 462,365 461,364 459,365 459,367 460,368 460,370 457,372 455,371 453,372 450,372 449,373 447,372 446,371 444,370 441,370 440,369 440,368 438,368 436,368 434,368 433,369 432,369 430,370 429,370 426,370 424,370 423,371 421,371 420,371 420,367 421,365 420,364 419,360 417,359 416,358 415,357 413,355 414,354 415,353 414,351 414,350 414,348 414,347 415,346 417,345 418,344 420,342 421,341 419,339 418,337 415,336 415,335 414,333 413,331 413,329 413,327 414,326 416,325 416,323 417,322 418,323 420,324 421,325 420,327 419,328 420,329 424,329 428,329 433,330 436,330 439,330 443,331 448,332 452,332 454,331 456,330 457,329 461,326 464,325 469,324 472,323 476,326 477,326 479,326 481,327 482,328 483,329 486,330 487,331 490,331 490,335 489,337 487,336 484,337 483,339 482,340 482,343 481,348 480,348 476,352 478,354 479,354 481,357 483,359 483,361Z M188,190 190,191 191,189 193,189 195,188 196,189 197,190 198,189 199,190 201,192 203,192 205,193 206,194 207,194 208,195 207,198 206,200 207,202 208,203 210,203 212,204 213,206 213,207 214,208 215,210 215,211 213,213 212,215 210,214 209,216 208,217 207,219 207,220 208,222 209,224 208,225 207,226 205,227 203,226 202,225 202,223 200,223 198,222 196,221 196,219 196,215 194,215 194,217 192,218 190,218 188,218 188,216 188,215 188,213 186,211 184,211 182,211 181,208 179,208 177,207 176,206 176,203 175,202 172,203 170,203 169,201 168,200 168,199 168,197 173,193 176,191 178,190 178,192 179,193 181,192 183,193 184,194 186,193 188,192 188,190Z M529,176 527,176 524,176 523,177 521,176 520,177 518,179 517,180 516,182 515,184 514,186 515,187 515,188 515,191 514,193 512,191 511,190 510,189 508,188 506,189 504,189 502,189 500,190 498,188 497,186 496,185 495,186 494,187 493,188 492,189 490,187 488,187 486,186 485,186 484,187 481,186 480,187 479,188 479,186 478,186 476,186 474,186 472,183 470,183 468,183 465,182 464,182 461,181 457,180 455,179 453,179 449,179 447,179 444,180 442,180 439,180 438,181 437,182 435,185 433,186 432,185 430,185 428,186 429,187 428,186 428,184 429,182 428,180 429,178 429,176 427,175 425,174 423,173 423,171 425,169 426,167 431,164 432,162 432,160 432,157 432,155 431,152 428,145 427,138 430,139 432,138 433,138 436,138 437,139 439,138 441,137 443,137 444,134 446,134 448,132 449,131 451,131 452,132 453,134 455,133 455,131 453,130 453,129 453,127 454,125 455,124 455,122 455,119 456,117 458,117 459,116 460,115 461,113 462,112 466,113 466,111 467,110 467,109 464,109 465,106 465,104 465,102 466,101 468,100 470,98 471,97 474,98 476,98 478,98 478,96 482,92 483,91 485,90 486,92 488,92 490,92 491,94 492,95 495,94 496,93 499,94 500,95 500,97 500,100 501,101 503,99 504,99 506,97 508,97 511,97 513,98 515,100 516,101 518,102 519,103 519,107 518,108 518,111 519,112 520,114 518,117 518,118 518,120 520,122 521,123 521,126 522,127 523,128 524,131 525,133 528,134 530,136 530,137 530,140 530,141 532,141 535,141 538,143 538,145 538,146 541,148 541,150 540,151 538,152 538,153 535,155 534,156 531,155 530,155 528,153 525,154 525,155 524,156 524,159 526,160 527,162 527,163 527,165 528,167 527,169 527,172 528,173 529,175Z M254,268 255,266 254,264 256,263 260,264 261,265 261,266 262,268 264,268 265,267 265,263 268,263 271,264 272,266 273,266 275,266 277,265 278,264 279,263 281,263 287,262 287,260 289,261 291,262 292,261 294,262 295,263 297,265 298,263 298,261 296,260 297,259 295,255 294,254 295,252 296,251 298,250 300,249 301,249 302,248 303,244 305,245 307,244 307,242 307,241 309,241 310,244 312,244 314,244 316,243 318,244 319,241 321,241 322,237 324,237 326,237 329,238 331,239 335,241 337,241 339,241 340,240 342,240 343,241 345,242 346,243 345,246 345,247 346,251 348,253 349,255 348,257 347,258 347,260 345,261 344,261 342,260 341,260 340,261 342,262 343,264 342,265 341,266 340,267 340,268 340,271 340,272 340,273 337,274 335,276 334,277 334,279 331,279 330,279 329,280 327,280 325,280 322,280 321,280 320,282 318,283 317,284 315,284 313,283 311,283 309,282 306,282 303,281 301,281 299,281 295,280 293,280 291,279 290,279 289,278 288,276 287,275 287,273 284,273 282,274 280,273 278,274 275,274 274,274 273,276 273,277 271,278 269,277 269,276 266,276 265,274 262,276 260,275 258,274 258,273 257,273 255,272 255,271 254,269Z M376,362 376,360 376,358 376,356 376,355 377,353 378,352 379,351 380,350 381,351 382,352 384,351 386,353 387,355 388,355 390,356 391,360 391,362 390,365 390,367 389,368 390,370 390,372 391,375 392,376 393,378 395,378 396,379 396,380 397,382 396,384 396,385 394,386 393,388 392,389 392,391 391,392 389,392 389,393 388,394 389,396 388,396 387,398 386,399 385,398 384,396 382,392 377,390 376,388 375,386 377,387 376,383 376,380 377,378 377,375 377,373 377,371 377,370 378,367 379,366 379,364 377,363 376,362Z" fill="#d7dde3" stroke="#ffffff" stroke-width="1.1" stroke-linejoin="round"/>
<line x1="130" y1="419" x2="135" y2="188" stroke="#E3332B" stroke-width="1.6" stroke-dasharray="4 4" opacity=".55"/><line x1="130" y1="419" x2="165" y2="239" stroke="#E3332B" stroke-width="1.6" stroke-dasharray="4 4" opacity=".55"/><line x1="130" y1="419" x2="302" y2="167" stroke="#E3332B" stroke-width="1.6" stroke-dasharray="4 4" opacity=".55"/><line x1="130" y1="419" x2="291" y2="362" stroke="#E3332B" stroke-width="1.6" stroke-dasharray="4 4" opacity=".55"/><line x1="130" y1="419" x2="396" y2="173" stroke="#E3332B" stroke-width="1.6" stroke-dasharray="4 4" opacity=".55"/><circle cx="135" cy="188" r="3" fill="#2b3640"/><circle cx="165" cy="239" r="3" fill="#2b3640"/><circle cx="302" cy="167" r="3" fill="#2b3640"/><circle cx="291" cy="362" r="3" fill="#2b3640"/><circle cx="396" cy="173" r="3" fill="#2b3640"/>
<circle cx="130" cy="419" r="11" fill="#E3332B" opacity=".18"/>
<circle cx="130" cy="419" r="5" fill="#E3332B" stroke="#fff" stroke-width="1.5"/>
</svg>